<svg width="32" height="33" viewBox="0 0 32 33" fill="none" xmlns="http://www.w3.org/2000/svg">
<path d="M0.56493 14.4813C0.483284 12.6057 0.737822 10.8863 1.48642 9.16694C2.23502 7.44757 3.3266 6.04082 4.74756 4.63407C6.17532 3.38362 7.77458 2.28948 9.72362 1.66426C10.5335 1.35164 11.508 1.03903 12.4893 0.882727L12.002 1.03903C12.002 1.03903 8.46735 3.07101 7.83442 7.44757C7.67514 11.3552 11.2084 13.0746 11.2084 13.0746C11.2084 13.0746 12.9247 10.8863 15.3951 10.8863C19.3476 10.8863 18.961 17.1385 18.961 17.1385C18.961 17.1385 24.7605 14.1687 24.4883 7.91649C24.3182 4.00884 19.9071 1.03903 19.9071 1.03903C20.4079 1.19534 21.0735 1.35164 21.5744 1.50795C23.5778 2.13317 25.2724 3.22732 26.809 4.47776C28.3456 5.72821 29.5665 7.29127 30.4647 9.01063C31.363 10.73 31.7672 12.4494 31.8489 14.325C32.1142 20.421 24.7971 26.3606 24.7971 26.3606C24.7971 26.3606 23.9343 21.6714 20.1464 21.6714C13.2295 21.6714 16.1557 32.1439 16.1557 32.1439C16.1557 32.1439 9.74787 28.7052 7.52807 19.3268C4.09003 19.7957 4.6031 24.016 4.6031 24.016C4.6031 24.016 0.782652 19.4831 0.56493 14.4813Z" fill="white"/>
</svg>
